<?xml version="1.0" encoding="UTF-8"?>
<svg width="69.455mm" height="28.606mm" version="1.1" viewBox="0 0 69.455 28.606" xmlns="http://www.w3.org/2000/svg">
<g transform="translate(-53.005 -132.79)">
<path transform="translate(-97.867 -45.395)" d="m192.47 190.5c-0.0794 0.13748-6.7153 3.9688-6.8741 3.9688s-6.7947-3.8313-6.8741-3.9688c-0.0794-0.13748-0.0794-7.8 0-7.9375s6.7153-3.9688 6.8741-3.9688 6.7947 3.8313 6.8741 3.9688c0.0794 0.13748 0.0794 7.8 0 7.9375z" fill="#fff" stroke="#000" stroke-linecap="round" stroke-width=".26458"/>
<path transform="translate(-97.833 -45.528)" d="m192.47 190.5c-0.0794 0.13748-6.7153 3.9688-6.8741 3.9688s-6.7947-3.8313-6.8741-3.9688c-0.0794-0.13748-0.0794-7.8 0-7.9375s6.7153-3.9688 6.8741-3.9688 6.7947 3.8313 6.8741 3.9688c0.0794 0.13748 0.0794 7.8 0 7.9375z" fill="#fff" stroke="#000" stroke-linecap="round" stroke-width=".26458"/>
<path transform="translate(-97.833 -45.528)" d="m192.47 190.5c-0.0794 0.13748-6.7153 3.9688-6.8741 3.9688s-6.7947-3.8313-6.8741-3.9688c-0.0794-0.13748-0.0794-7.8 0-7.9375s6.7153-3.9688 6.8741-3.9688 6.7947 3.8313 6.8741 3.9688c0.0794 0.13748 0.0794 7.8 0 7.9375z" fill="#fff" stroke="#000" stroke-linecap="round" stroke-width=".26458"/>
<path transform="translate(-104.74 -33.489)" d="m192.47 190.5c-0.0794 0.13748-6.7153 3.9688-6.8741 3.9688s-6.7947-3.8313-6.8741-3.9688c-0.0794-0.13748-0.0794-7.8 0-7.9375s6.7153-3.9688 6.8741-3.9688 6.7947 3.8313 6.8741 3.9688c0.0794 0.13748 0.0794 7.8 0 7.9375z" fill="#fff" stroke="#000" stroke-linecap="round" stroke-width=".26458"/>
<path transform="translate(-118.49 -33.489)" d="m192.47 190.5c-0.0794 0.13748-6.7153 3.9688-6.8741 3.9688s-6.7947-3.8313-6.8741-3.9688c-0.0794-0.13748-0.0794-7.8 0-7.9375s6.7153-3.9688 6.8741-3.9688 6.7947 3.8313 6.8741 3.9688c0.0794 0.13748 0.0794 7.8 0 7.9375z" fill="#fff" stroke="#000" stroke-linecap="round" stroke-width=".26458"/>
<path transform="translate(-104.74 -33.489)" d="m192.47 190.5c-0.0794 0.13748-6.7153 3.9688-6.8741 3.9688s-6.7947-3.8313-6.8741-3.9688c-0.0794-0.13748-0.0794-7.8 0-7.9375s6.7153-3.9688 6.8741-3.9688 6.7947 3.8313 6.8741 3.9688c0.0794 0.13748 0.0794 7.8 0 7.9375z" fill="#fff" stroke="#000" stroke-linecap="round" stroke-width=".26458"/>
<path transform="translate(-90.993 -33.489)" d="m192.47 190.5c-0.0794 0.13748-6.7153 3.9688-6.8741 3.9688s-6.7947-3.8313-6.8741-3.9688c-0.0794-0.13748-0.0794-7.8 0-7.9375s6.7153-3.9688 6.8741-3.9688 6.7947 3.8313 6.8741 3.9688c0.0794 0.13748 0.0794 7.8 0 7.9375z" fill="#fff" stroke="#000" stroke-linecap="round" stroke-width=".26458"/>
<path transform="translate(-84.119 -45.395)" d="m192.47 190.5c-0.0794 0.13748-6.7153 3.9688-6.8741 3.9688s-6.7947-3.8313-6.8741-3.9688c-0.0794-0.13748-0.0794-7.8 0-7.9375s6.7153-3.9688 6.8741-3.9688 6.7947 3.8313 6.8741 3.9688c0.0794 0.13748 0.0794 7.8 0 7.9375z" fill="#fff" stroke="#000" stroke-linecap="round" stroke-width=".26458"/>
<path transform="translate(-70.371 -45.395)" d="m192.47 190.5c-0.0794 0.13748-6.7153 3.9688-6.8741 3.9688s-6.7947-3.8313-6.8741-3.9688c-0.0794-0.13748-0.0794-7.8 0-7.9375s6.7153-3.9688 6.8741-3.9688 6.7947 3.8313 6.8741 3.9688c0.0794 0.13748 0.0794 7.8 0 7.9375z" fill="#fff" stroke="#000" stroke-linecap="round" stroke-width=".26458"/>
<path transform="translate(-111.62 -45.395)" d="m192.47 190.5c-0.0794 0.13748-6.7153 3.9688-6.8741 3.9688s-6.7947-3.8313-6.8741-3.9688c-0.0794-0.13748-0.0794-7.8 0-7.9375s6.7153-3.9688 6.8741-3.9688 6.7947 3.8313 6.8741 3.9688c0.0794 0.13748 0.0794 7.8 0 7.9375z" fill="#fff" stroke="#000" stroke-linecap="round" stroke-width=".26458"/>
<path transform="translate(-125.36 -45.395)" d="m192.47 190.5c-0.0794 0.13748-6.7153 3.9688-6.8741 3.9688s-6.7947-3.8313-6.8741-3.9688c-0.0794-0.13748-0.0794-7.8 0-7.9375s6.7153-3.9688 6.8741-3.9688 6.7947 3.8313 6.8741 3.9688c0.0794 0.13748 0.0794 7.8 0 7.9375z" fill="#fff" stroke="#000" stroke-linecap="round" stroke-width=".26458"/>
<text x="70.779778" y="156.85072" direction="rtl" fill="#9a9a9a" font-family="Helvetica" font-size="10.583px" font-weight="bold" stroke-linecap="round" stroke-width=".26458" xml:space="preserve"><tspan x="70.779778" y="156.85072" fill="#9a9a9a" font-size="10.583px" stroke-width=".26458">B</tspan></text>
<g transform="translate(-100.02 -23.868)" fill="#9a9a9a">
<text x="197.83401" y="180.71869" direction="rtl" fill="#9a9a9a" font-family="Helvetica" font-size="10.583px" font-weight="bold" stroke-linecap="round" stroke-width=".26458" xml:space="preserve"><tspan x="197.83401" y="180.71869" fill="#9a9a9a" font-size="10.583px" stroke-width=".26458">T</tspan></text>
</g>
<text x="84.918114" y="156.86107" direction="rtl" fill="#9a9a9a" font-family="Helvetica" font-size="10.583px" font-weight="bold" stroke-linecap="round" stroke-width=".26458" xml:space="preserve"><tspan x="84.918114" y="156.86107" stroke-width=".26458">O</tspan><tspan x="84.918114" y="170.09019"/></text>
<text x="91.792183" y="144.95482" direction="rtl" fill="#a1111a" font-family="Helvetica" font-size="10.583px" font-weight="bold" stroke-linecap="round" stroke-width=".26458" xml:space="preserve"><tspan x="91.792183" y="144.95482" fill="#a1111a" font-size="10.583px" stroke-width=".26458">O</tspan></text>
<path d="m122.1 137.17-6.8741-3.9688-6.8741 3.9688-6.8741-3.9688-6.8741 3.9688-6.8741-3.9688-6.8399 3.8364-6.9082-3.8364-6.8741 3.9688-6.8741-3.9688-6.8741 3.9688v7.9375l6.8741 3.9688v7.9375l6.8741 3.9688 6.8741-3.9688 6.8741 3.9688 6.8741-3.9688 6.8741 3.9688 6.8741-3.9688v-7.9375l6.8741-3.9688 6.8741 3.9688 6.8741-3.9688z" fill="none" stroke="#000" stroke-linecap="round" stroke-width=".71438" style="paint-order:markers stroke fill"/>
<text x="63.851418" y="144.94447" direction="rtl" fill="#000000" font-family="Helvetica" font-size="10.583px" font-weight="bold" stroke-linecap="round" stroke-width=".26458" xml:space="preserve"><tspan x="63.851418" y="144.94447" fill="#000000" font-size="10.583px" stroke-width=".26458">D</tspan></text>
<text x="77.462662" y="144.94447" direction="rtl" fill="#000000" font-family="Helvetica" font-size="10.583px" font-weight="bold" stroke-linecap="round" stroke-width=".26458" xml:space="preserve"><tspan x="77.462662" y="144.94447" stroke-width=".26458">V</tspan><tspan x="77.462662" y="158.1736"/></text>
<text x="105.25095" y="144.94447" direction="rtl" fill="#000000" font-family="Helvetica" font-size="10.583px" font-weight="bold" stroke-linecap="round" stroke-width=".26458" xml:space="preserve"><tspan x="105.25095" y="144.94447" fill="#000000" font-size="10.583px" stroke-width=".26458">N</tspan></text>
<text x="118.99911" y="144.94447" direction="rtl" fill="#000000" font-family="Helvetica" font-size="10.583px" font-weight="bold" stroke-linecap="round" stroke-width=".26458" xml:space="preserve"><tspan x="118.99911" y="144.94447" fill="#000000" font-size="10.583px" stroke-width=".26458">N</tspan></text>
</g>
</svg>
