<svg width="37.566" height="33.137" viewBox="0 0 9.939 8.767" xmlns="http://www.w3.org/2000/svg"><g paint-order="markers stroke fill"><path d="M4.383 0A4.392 4.392 0 000 4.385a4.39 4.39 0 004.383 4.382 4.37 4.37 0 003.142-1.333l-.589-.916A3.314 3.314 0 014.383 7.71a3.318 3.318 0 01-3.327-3.324 3.32 3.32 0 013.327-3.327 3.318 3.318 0 013.324 3.327c0 .39-.068.765-.19 1.112l.176.274 1.064-1.653A4.392 4.392 0 004.383 0z"/><path style="-inkscape-stroke:none" d="M9.94 3.24L7.692 6.732 5.447 3.24" color="#000"/></g></svg>